<svg xmlns="http://www.w3.org/2000/svg" viewBox="0 0 409 444">
  <defs>
    <linearGradient id="lg" x1="396.9" y1="391.9" x2="60.3" y2="55.3" gradientTransform="translate(0 448) scale(1 -1)" gradientUnits="userSpaceOnUse">
      <stop offset="0" stop-color="#1f9dd9"></stop>
      <stop offset="1" stop-color="#4b34ab"></stop>
    </linearGradient>
    
  </defs>
  <g>
    <g id="Layer_1">
      <path id="shape-3" fill="#1f9dd9" d="M33,49.2L308.8.6c21.8-3.8,42.5,10.7,46.3,32.4l48.6,275.7c3.8,21.8-10.7,42.5-32.4,46.3l-275.8,48.8c-21.8,3.8-42.5-10.7-46.3-32.4L.6,95.6c-3.8-21.8,10.7-42.5,32.4-46.4Z"></path>
      <path id="shape-2" fill="#4b34ab" d="M371,379.8l-278.9,24.4c-22,1.9-41.4-14.4-43.3-36.4L24.3,88.9c-1.9-22,14.4-41.4,36.4-43.3l278.9-24.4c22-1.9,41.4,14.4,43.3,36.4l24.4,278.9c2,22-14.3,41.4-36.3,43.3Z"></path>
      <path id="shape-1" fill="url(#lg)" d="M368.6,44.4H88.6c-22.1,0-40,17.9-40,40v280c0,22.1,17.9,40,40,40h190v40l40-40h50c22.1,0,40-17.9,40-40V84.4c0-22.1-17.9-40-40-40Z"></path>
      <path fill="none" stroke="#fff" stroke-width="8" stroke-linecap="round" stroke-miterlimit="10" d="M360.6,148v-6.2c0-6.9-5.6-12.5-12.5-12.5h-24.9c-6.9,0-12.5,5.6-12.5,12.5v6.2"></path>
      <circle fill="none" stroke="#fff" stroke-width="8" stroke-linecap="round" stroke-miterlimit="10" cx="335.6" cy="104.4" r="12.5"></circle>
      <polygon fill="#fff" points="97.8 176.4 105.3 176.4 105.3 143.6 116.6 143.6 116.6 137.6 86.5 137.6 86.5 143.6 97.8 143.6 97.8 176.4"></polygon>
      <path fill="#fff" d="M127,161.7c0-1.6.3-3,.9-4.1s1.4-2,2.4-2.6,2.1-.9,3.4-.9c2,0,3.4.6,4.3,1.8.9,1.2,1.4,2.9,1.4,5.2v15.3h7.4v-16c0-2.7-.4-5-1.2-6.9s-2-3.3-3.6-4.3-3.6-1.5-5.9-1.5-3.8.4-5.3,1.3c-1.6.9-2.8,2-3.7,3.5v-16.1h-7.5v40h7.5v-14.8h0Z"></path>
      <path fill="#fff" d="M157.5,175.3c2.2,1.2,4.7,1.8,7.5,1.8s4.2-.4,5.9-1.2c1.8-.8,3.3-1.9,4.5-3.3,1.2-1.4,2.1-3,2.6-4.7h-7.6c-.5,1-1.2,1.7-2,2.3-.9.6-2,.9-3.4.9s-2.6-.3-3.6-.9c-1-.6-1.8-1.5-2.4-2.6-.5-.9-.7-2-.8-3.1h20.6v-2.6c0-2.7-.6-5-1.7-7.1-1.1-2.1-2.8-3.7-4.8-4.9-2.1-1.2-4.5-1.8-7.3-1.8s-5.3.6-7.5,1.9c-2.1,1.3-3.8,3.1-5,5.3s-1.8,4.8-1.8,7.7.6,5.3,1.8,7.5,2.9,3.9,5.1,5.1v-.3h-.1ZM161.5,154.8c1.1-.6,2.2-.9,3.5-.9s3.1.5,4.3,1.6,1.8,2.5,1.9,4.2h-13c.2-.8.4-1.6.7-2.2.6-1.2,1.5-2.1,2.5-2.7h.1Z"></path>
      <path fill="#fff" d="M93.6,235.4c2.2,1,4.7,1.4,7.5,1.4s5.5-.5,7.5-1.6,3.6-2.5,4.6-4.2c1.1-1.7,1.6-3.6,1.6-5.7s-.5-4.3-1.4-5.7c-1-1.4-2.2-2.6-3.9-3.5-1.6-.9-3.4-1.7-5.4-2.4-1.3-.4-2.5-.8-3.6-1.2s-2.1-.8-2.9-1.3-1.4-1-1.9-1.6c-.4-.6-.7-1.4-.7-2.3s.2-1.8.7-2.4c.4-.6,1.1-1.1,1.9-1.5.8-.3,1.7-.5,2.6-.4,1.1,0,2.1.2,2.9.7s1.5,1.1,1.9,1.8c.5.8.7,1.6.7,2.4h8c0-2.3-.7-4.3-1.9-6-1.2-1.7-2.7-3-4.7-3.9s-4.3-1.4-6.9-1.4-4.8.4-6.8,1.3c-2,.9-3.6,2.2-4.7,3.8-1.1,1.7-1.7,3.7-1.7,6s.8,4.9,2.4,6.6c1.6,1.7,3.9,3,7,4.1,1.3.4,2.6.9,3.9,1.3,1.2.4,2.3.9,3.3,1.4.9.5,1.7,1.1,2.2,1.9.6.7.8,1.7.8,2.8s-.3,1.8-.7,2.5c-.5.7-1.2,1.2-2.1,1.6-.9.4-1.9.6-3.1.6s-2.5-.3-3.5-.8-1.7-1.3-2.3-2.2c-.6-.9-.9-2-.9-3.1h-7.9c0,2.6.7,4.9,2,6.7,1.3,1.9,3,3.3,5.2,4.2h.3Z"></path>
      <path fill="#fff" d="M124.9,234.9c2.1,1.2,4.5,1.9,7.2,1.9s5.1-.6,7.2-1.9c2.1-1.2,3.8-3,5-5.2s1.9-4.7,1.9-7.6-.6-5.5-1.9-7.7c-1.2-2.2-2.9-3.9-5-5.1-2.1-1.2-4.5-1.9-7.2-1.9s-5.1.6-7.3,1.9c-2.1,1.2-3.8,3-5.1,5.2-1.2,2.2-1.9,4.8-1.9,7.7s.6,5.4,1.9,7.6c1.2,2.2,2.9,3.9,5,5.2h.2ZM126.6,217.6c.6-1.2,1.4-2.1,2.4-2.7,1-.6,2.1-.9,3.3-.9s2.3.3,3.2.9c1,.6,1.7,1.5,2.3,2.7s.9,2.7.9,4.5-.3,3.3-.9,4.5c-.6,1.2-1.4,2.1-2.4,2.7-1,.6-2.1.9-3.2.9s-2.3-.3-3.3-.9c-1-.6-1.8-1.5-2.4-2.7s-.9-2.7-.9-4.5.3-3.3.9-4.5h0Z"></path>
      <rect fill="#fff" x="150.6" y="196.2" width="7.5" height="40"></rect>
      <path fill="#fff" d="M176.6,236.8c2.2,0,4.2-.4,5.9-1.2,1.8-.8,3.3-1.9,4.5-3.3,1.2-1.4,2.1-3,2.6-4.7h-7.6c-.5,1-1.2,1.7-2,2.3-.9.6-2,.9-3.4.9s-2.6-.3-3.6-.9c-1-.6-1.8-1.5-2.4-2.6-.5-.9-.7-2-.8-3.1h20.6v-2.6c0-2.7-.6-5-1.7-7.1-1.1-2.1-2.8-3.7-4.8-4.9-2.1-1.2-4.5-1.8-7.3-1.8s-5.3.6-7.5,1.9c-2.1,1.3-3.8,3.1-5,5.3s-1.8,4.8-1.8,7.7.6,5.3,1.8,7.5,2.9,3.9,5,5.1c2.2,1.2,4.7,1.8,7.5,1.8v-.3h0ZM173.1,214.5c1.1-.6,2.2-.9,3.5-.9s3.1.5,4.3,1.6,1.8,2.5,1.9,4.2h-13c.2-.8.4-1.6.7-2.2.6-1.2,1.5-2.1,2.5-2.7h.1Z"></path>
      <polygon fill="#fff" points="97.8 295 105.3 295 105.3 262.2 116.6 262.2 116.6 256.1 86.5 256.1 86.5 262.2 97.8 262.2 97.8 295"></polygon>
      <path fill="#fff" d="M124.4,282.1c0-1.5.2-2.8.6-3.7.4-1,.9-1.8,1.6-2.4s1.5-1,2.5-1.3c.9-.2,2-.4,3.1-.4h2.6v-7.9c-1.6,0-3,.2-4.4.7-1.3.5-2.5,1.1-3.5,2s-1.9,1.9-2.6,3.1l-.7-5.1h-6.7v28h7.5v-12.9h0Z"></path>
      <path fill="#fff" d="M156.9,267.7c-1.9-.9-4.2-1.3-6.9-1.3s-4.4.4-6.2,1.2c-1.9.8-3.4,1.9-4.5,3.4-1.1,1.4-1.8,3.2-2,5.2h7.3c.2-1.3.8-2.2,1.8-2.8,1-.6,2.2-.9,3.6-.9s2.3.2,3.1.7c.8.4,1.4,1.1,1.7,2,.4.9.5,2,.5,3.4h-6.8c-2.7,0-5,.4-6.8,1.1s-3.1,1.7-4,3-1.3,2.8-1.3,4.6.4,3,1.1,4.2c.8,1.3,1.9,2.3,3.4,3.1,1.5.8,3.4,1.1,5.7,1.1s2.2-.1,3.1-.4c.9-.2,1.7-.6,2.5-1s1.4-1,2-1.6,1.1-1.3,1.5-2l.8,4.3h6.3v-17.4c0-2.4-.5-4.4-1.5-6.1s-2.5-3-4.4-3.8h0ZM155.1,283.2c-.1.9-.3,1.8-.7,2.6s-.8,1.5-1.3,2.1c-.6.6-1.2,1.1-2,1.5s-1.6.5-2.5.5-1.5-.1-2.2-.4c-.6-.3-1.1-.6-1.5-1.1-.3-.5-.5-1.1-.5-1.8s.2-1.3.5-1.8.9-.9,1.6-1.2c.7-.3,1.7-.4,2.9-.4h5.7Z"></path>
      <path fill="#fff" d="M173.2,293.8c2,1.3,4.3,1.9,6.9,1.9s2.9-.2,4-.6,2.1-1,2.9-1.6c.8-.7,1.5-1.5,2.1-2.3l.8,3.9h6.7v-40h-7.5v15.6c-.9-1.4-2.1-2.4-3.6-3.2-1.5-.7-3.3-1.1-5.3-1.1s-4.9.6-6.9,1.9c-2.1,1.3-3.7,3-4.8,5.2s-1.7,4.7-1.7,7.6.6,5.3,1.7,7.5c1.1,2.2,2.7,4,4.7,5.2h0ZM175.4,276.8c.6-1.2,1.5-2.2,2.6-2.9,1.1-.7,2.4-1,3.8-1s2.8.3,4,1c1.1.7,2,1.6,2.6,2.8.6,1.2.9,2.6.9,4.2s-.3,3.1-.9,4.3-1.5,2.2-2.6,2.9c-1.1.7-2.4,1-3.9,1s-2.7-.4-3.9-1.1c-1.1-.7-2-1.7-2.6-2.9-.6-1.2-.9-2.6-.9-4.2s.3-2.9.9-4.2h0Z"></path>
      <path fill="#fff" d="M220.6,286.4c-.5,1-1.2,1.7-2,2.3-.9.6-2,.9-3.4.9s-2.6-.3-3.6-.9-1.8-1.5-2.4-2.6c-.5-.9-.7-2-.8-3.1h20.6v-2.6c0-2.7-.6-5-1.7-7.1-1.1-2.1-2.8-3.7-4.8-4.9-2.1-1.2-4.5-1.8-7.3-1.8s-5.3.6-7.5,1.9c-2.1,1.3-3.8,3.1-5,5.3-1.2,2.2-1.8,4.8-1.8,7.7s.6,5.3,1.8,7.5,2.9,3.9,5.1,5.1c2.2,1.2,4.7,1.8,7.5,1.8s4.2-.4,5.9-1.2c1.8-.8,3.3-1.9,4.5-3.3s2.1-3,2.6-4.7h-7.6v-.3h-.1ZM211.7,273.3c1.1-.6,2.2-.9,3.5-.9s3.1.5,4.3,1.6,1.8,2.5,1.9,4.2h-13c.2-.8.4-1.6.7-2.2.6-1.2,1.5-2.1,2.5-2.7h.1Z"></path>
      <path fill="#fff" d="M240.5,282.1c0-1.5.2-2.8.6-3.7.4-1,.9-1.8,1.6-2.4.7-.6,1.5-1,2.5-1.3.9-.2,2-.4,3.1-.4h2.6v-7.9c-1.6,0-3,.2-4.4.7-1.3.5-2.5,1.1-3.5,2s-1.9,1.9-2.6,3.1l-.7-5.1h-6.7v28h7.5v-12.9h0Z"></path>
      <polygon fill="#fff" points="265.3 256.1 257.4 256.1 254.4 270.4 259.5 270.4 265.3 256.1"></polygon>
      <path fill="#fff" d="M263.1,270.7c-.9,1.3-1.3,2.8-1.3,4.4s.3,2.5.9,3.4,1.4,1.7,2.4,2.3c1,.6,2.1,1.1,3.4,1.5s2.6.7,3.9,1c1.2.2,2.3.5,3.1.8.9.3,1.5.6,2,1.1.5.4.7,1,.7,1.8s-.2,1-.5,1.5-.8.9-1.4,1.1c-.6.3-1.5.4-2.5.4s-1.9-.2-2.7-.5c-.7-.3-1.3-.8-1.8-1.4-.4-.6-.7-1.2-.9-1.9h-7.5c.1,1.9.8,3.5,1.8,4.9,1.1,1.4,2.5,2.5,4.4,3.4,1.9.8,4.1,1.2,6.7,1.2s4.5-.4,6.2-1.2c1.8-.8,3.1-1.9,4.1-3.2,1-1.4,1.4-3,1.4-4.7s-.5-3.5-1.4-4.6-2.2-1.9-3.8-2.4c-1.6-.6-3.5-1.1-5.7-1.5-1.2-.3-2.3-.5-3.1-.8-.9-.3-1.5-.6-2-1.1-.5-.4-.7-.9-.7-1.4s.4-1.3,1.1-1.8,1.7-.7,3-.7,2.3.2,3,.7c.8.5,1.2,1.2,1.5,2.1h7c-.4-2.7-1.5-4.8-3.5-6.3s-4.6-2.3-8-2.3-4.4.4-6.1,1.2c-1.7.8-3,1.8-3.9,3.2l.2-.2h0Z"></path>
      <polygon fill="#fff" points="110.9 331.8 93.9 331.8 93.9 315.8 86.5 315.8 86.5 354.7 93.9 354.7 93.9 337.9 110.9 337.9 110.9 354.7 118.4 354.7 118.4 315.8 110.9 315.8 110.9 331.8"></polygon>
      <path fill="#fff" d="M144.4,327.9c-2.1-1.2-4.5-1.8-7.3-1.8s-5.3.6-7.5,1.9c-2.1,1.3-3.8,3.1-5,5.3-1.2,2.2-1.8,4.8-1.8,7.7s.6,5.3,1.8,7.5c1.2,2.2,2.9,3.9,5,5.1,2.1,1.2,4.7,1.8,7.5,1.8s4.2-.4,5.9-1.2c1.8-.8,3.3-1.9,4.5-3.3s2.1-3,2.6-4.7h-7.6c-.5,1-1.2,1.7-2,2.3-.9.6-2,.9-3.4.9s-2.6-.3-3.6-.9-1.8-1.5-2.4-2.6c-.5-.9-.7-2-.8-3.1h20.6v-2.6c0-2.7-.6-5-1.7-7.1-1.1-2.1-2.8-3.7-4.8-4.9v-.3h0ZM130.4,337.9c.2-.8.4-1.6.7-2.2.6-1.2,1.5-2.1,2.5-2.7,1.1-.6,2.2-.9,3.5-.9s3.1.5,4.3,1.6,1.8,2.5,1.9,4.2h-13,.1Z"></path>
      <rect fill="#fff" x="154.9" y="314.7" width="7.5" height="40"></rect>
      <path fill="#fff" d="M190.9,328c-2-1.3-4.3-1.9-7-1.9s-2.8.2-3.9.6c-1.1.4-2.1,1-2.9,1.7-.8.7-1.5,1.4-2.1,2.2l-.8-3.8h-6.7v40.2h7.5v-15.8c1,1.3,2.2,2.4,3.7,3.1,1.5.8,3.3,1.1,5.3,1.1s4.9-.6,6.9-1.9,3.6-3,4.8-5.2,1.8-4.7,1.8-7.5-.6-5.3-1.7-7.5c-1.2-2.2-2.7-4-4.7-5.2h-.2ZM188.8,345c-.6,1.2-1.5,2.1-2.7,2.8-1.1.7-2.4,1-3.9,1s-2.7-.3-3.9-1c-1.1-.7-2-1.6-2.6-2.8-.6-1.2-.9-2.6-.9-4.2s.3-3.1.9-4.3,1.5-2.2,2.6-2.9c1.1-.7,2.4-1,3.9-1s2.7.3,3.9,1c1.1.7,2,1.6,2.7,2.9.6,1.2,1,2.7,1,4.3s-.3,3-1,4.2Z"></path>
      <rect fill="#fff" x="201.6" y="314.7" width="7.5" height="40"></rect>
      <rect fill="#fff" x="214.4" y="326.7" width="7.5" height="28"></rect>
      <path fill="#fff" d="M218.1,314.5c-1.4,0-2.5.4-3.3,1.2-.9.8-1.3,1.8-1.3,3s.4,2.2,1.3,3c.9.8,2,1.2,3.3,1.2s2.5-.4,3.4-1.2c.9-.8,1.3-1.8,1.3-3s-.4-2.2-1.3-3c-.9-.8-2-1.2-3.4-1.2Z"></path>
      <path fill="#fff" d="M249.5,327.5c-1.6-1-3.6-1.5-5.9-1.5s-4.1.5-5.6,1.4c-1.6.9-2.8,2.2-3.7,3.9l-.5-4.6h-6.6v28h7.5v-14.9c0-1.6.3-2.9.8-4,.6-1.1,1.3-1.9,2.3-2.5s2.1-.9,3.3-.9c2,0,3.4.6,4.4,1.8,1,1.2,1.4,2.9,1.4,5v15.5h7.5v-16.1c0-2.7-.4-4.9-1.3-6.8-.9-1.8-2.1-3.3-3.7-4.2h.1Z"></path>
      <path fill="#fff" d="M284.7,332.8c-1.1-2.1-2.8-3.7-4.8-4.9-2.1-1.2-4.5-1.8-7.3-1.8s-5.3.6-7.5,1.9c-2.1,1.3-3.8,3.1-5,5.3-1.2,2.2-1.8,4.8-1.8,7.7s.6,5.3,1.8,7.5c1.2,2.2,2.9,3.9,5,5.1s4.7,1.8,7.5,1.8,4.2-.4,5.9-1.2c1.8-.8,3.3-1.9,4.5-3.3s2.1-3,2.6-4.7h-7.6c-.5,1-1.2,1.7-2,2.3-.9.6-2,.9-3.4.9s-2.6-.3-3.6-.9-1.8-1.5-2.4-2.6c-.5-.9-.7-2-.8-3.1h20.6v-2.6c0-2.7-.6-5-1.7-7.1v-.3h0ZM265.9,337.9c.2-.8.4-1.6.7-2.2.6-1.2,1.5-2.1,2.5-2.7,1.1-.6,2.2-.9,3.5-.9s3.1.5,4.3,1.6c1.2,1.1,1.8,2.5,1.9,4.2h-13,.1Z"></path>
    </g>
  </g>
</svg>